<svg xmlns="http://www.w3.org/2000/svg" xmlns:xlink="http://www.w3.org/1999/xlink" width="85" zoomAndPan="magnify" viewBox="0 0 63.75 63.749998" height="85" preserveAspectRatio="xMidYMid meet" version="1.0"><defs><clipPath id="31b5685d94"><path d="M 0 9.097656 L 63.5 9.097656 L 63.5 54.847656 L 0 54.847656 Z M 0 9.097656 " clip-rule="nonzero"/></clipPath></defs><g clip-path="url(#31b5685d94)"><path fill="#38b6ff" d="M 60.089844 9.097656 C 59.6875 9.097656 59.28125 9.097656 58.875 9.097656 L 4.011719 9.097656 C 2.242188 9.097656 0.570312 10.117188 0.167969 11.945312 C 0.0664062 12.707031 0.015625 13.46875 0.0664062 14.234375 L 0.0664062 49.765625 C 0.015625 50.628906 0.0664062 51.492188 0.269531 52.308594 C 0.824219 53.984375 2.394531 54.847656 4.0625 54.847656 L 60.089844 54.847656 C 60.191406 54.847656 60.292969 54.796875 60.394531 54.746094 C 62.417969 54.542969 63.734375 52.867188 63.734375 50.78125 L 63.734375 13.0625 C 63.734375 10.929688 62.265625 9.148438 60.089844 9.097656 Z M 1.332031 12.757812 C 1.382812 11.183594 2.597656 10.320312 4.0625 10.320312 L 54.828125 10.320312 C 56.546875 10.320312 58.320312 10.269531 60.039062 10.320312 C 61.558594 10.371094 62.519531 11.539062 62.519531 13.011719 L 62.519531 17.433594 L 8.367188 17.433594 C 5.988281 17.433594 3.660156 17.332031 1.332031 17.433594 C 1.28125 15.910156 1.28125 14.335938 1.332031 12.757812 Z M 62.46875 51.085938 C 62.46875 52.410156 61.40625 53.476562 60.039062 53.527344 C 59.988281 53.527344 59.9375 53.527344 59.9375 53.527344 L 4.316406 53.527344 C 3.253906 53.527344 2.191406 53.375 1.632812 52.308594 C 1.230469 51.542969 1.332031 50.679688 1.332031 49.816406 L 1.332031 19.265625 C 1.332031 19.113281 1.332031 18.910156 1.332031 18.757812 L 55.433594 18.757812 C 57.8125 18.757812 60.140625 18.859375 62.46875 18.757812 L 62.46875 50.578125 C 62.46875 50.730469 62.46875 50.933594 62.46875 51.085938 Z M 62.46875 51.085938 " fill-opacity="1" fill-rule="nonzero"/></g><path fill="#38b6ff" d="M 5.582031 14.488281 C 5.582031 14.4375 5.53125 14.4375 5.582031 14.488281 Z M 5.582031 14.488281 " fill-opacity="1" fill-rule="nonzero"/><path fill="#38b6ff" d="M 8.0625 15.65625 C 8.417969 15.25 8.566406 14.792969 8.566406 14.234375 C 8.566406 14.132812 8.566406 14.082031 8.566406 13.980469 C 8.46875 13.164062 7.910156 12.503906 7.152344 12.199219 C 6.339844 11.894531 5.378906 12.148438 4.824219 12.808594 C 4.0625 13.726562 4.164062 15.046875 5.023438 15.859375 C 5.9375 16.621094 7.253906 16.519531 8.0625 15.65625 Z M 7.304688 14.082031 C 7.304688 14.082031 7.304688 14.132812 7.304688 14.082031 C 7.304688 14.132812 7.304688 14.132812 7.304688 14.132812 C 7.304688 14.132812 7.304688 14.132812 7.304688 14.082031 Z M 5.53125 14.082031 C 5.53125 14.03125 5.53125 14.03125 5.53125 13.980469 C 5.53125 13.929688 5.582031 13.878906 5.582031 13.777344 L 5.632812 13.675781 L 5.683594 13.570312 C 5.734375 13.519531 5.785156 13.46875 5.835938 13.417969 L 5.886719 13.417969 C 5.835938 13.46875 5.886719 13.417969 5.9375 13.417969 C 5.988281 13.367188 6.089844 13.367188 6.140625 13.316406 C 6.140625 13.316406 5.988281 13.367188 6.089844 13.316406 L 6.1875 13.265625 L 6.289062 13.265625 C 6.289062 13.265625 6.289062 13.265625 6.339844 13.265625 C 6.339844 13.265625 6.390625 13.265625 6.390625 13.265625 L 6.542969 13.265625 L 6.796875 13.316406 C 6.898438 13.367188 6.898438 13.367188 6.898438 13.367188 L 7 13.46875 C 6.949219 13.417969 6.898438 13.417969 6.949219 13.46875 L 7.101562 13.621094 C 7.101562 13.675781 7.152344 13.675781 7.152344 13.726562 L 7.203125 13.828125 C 7.203125 13.878906 7.203125 13.929688 7.253906 13.929688 C 7.253906 13.980469 7.203125 14.03125 7.203125 14.082031 C 7.203125 14.132812 7.203125 14.132812 7.203125 14.183594 C 7.203125 14.234375 7.152344 14.335938 7.152344 14.386719 C 7.152344 14.386719 7.152344 14.4375 7.152344 14.4375 C 7.152344 14.4375 7.152344 14.4375 7.152344 14.488281 C 7.101562 14.539062 7.050781 14.640625 7.050781 14.691406 C 7.050781 14.691406 7 14.742188 7 14.742188 C 7 14.742188 6.949219 14.792969 6.949219 14.792969 L 6.898438 14.792969 C 6.847656 14.84375 6.847656 14.84375 6.898438 14.792969 C 6.847656 14.84375 6.796875 14.84375 6.796875 14.894531 L 6.746094 14.945312 L 6.492188 15.046875 C 6.441406 15.046875 6.441406 15.046875 6.390625 15.046875 L 6.1875 15.046875 C 6.140625 15.046875 6.089844 15.046875 6.089844 14.996094 L 5.988281 14.945312 C 5.886719 14.894531 6.039062 14.945312 6.039062 14.945312 C 6.039062 14.945312 5.886719 14.84375 5.886719 14.84375 L 5.785156 14.792969 C 5.785156 14.792969 5.632812 14.640625 5.632812 14.640625 L 5.582031 14.589844 L 5.582031 14.488281 C 5.582031 14.488281 5.582031 14.539062 5.582031 14.539062 C 5.582031 14.539062 5.53125 14.386719 5.53125 14.335938 Z M 5.53125 14.082031 " fill-opacity="1" fill-rule="nonzero"/><path fill="#38b6ff" d="M 13.125 15.554688 C 13.425781 15.199219 13.578125 14.742188 13.628906 14.285156 C 13.628906 14.234375 13.628906 14.234375 13.628906 14.183594 C 13.628906 14.183594 13.628906 14.132812 13.628906 14.132812 C 13.628906 13.214844 13.074219 12.402344 12.210938 12.097656 C 11.402344 11.792969 10.441406 12.046875 9.882812 12.707031 C 9.125 13.621094 9.226562 14.945312 10.085938 15.757812 C 10.996094 16.570312 12.3125 16.46875 13.125 15.554688 Z M 10.644531 14.082031 C 10.644531 14.03125 10.644531 14.03125 10.644531 13.980469 C 10.644531 13.929688 10.695312 13.878906 10.695312 13.777344 L 10.746094 13.675781 L 10.796875 13.570312 C 10.847656 13.519531 10.894531 13.46875 10.945312 13.417969 L 10.996094 13.417969 C 10.996094 13.417969 10.996094 13.417969 11.046875 13.417969 C 11.097656 13.367188 11.199219 13.367188 11.25 13.316406 C 11.25 13.316406 11.097656 13.367188 11.199219 13.316406 L 11.300781 13.265625 L 11.402344 13.265625 C 11.402344 13.265625 11.402344 13.265625 11.453125 13.265625 C 11.453125 13.265625 11.503906 13.265625 11.503906 13.265625 L 11.605469 13.265625 L 11.859375 13.316406 C 11.960938 13.367188 11.960938 13.367188 11.960938 13.367188 C 11.960938 13.367188 12.011719 13.367188 12.011719 13.417969 C 12.011719 13.417969 12.011719 13.417969 12.058594 13.46875 L 12.210938 13.621094 C 12.210938 13.675781 12.261719 13.675781 12.261719 13.726562 L 12.3125 13.828125 C 12.363281 13.929688 12.363281 13.980469 12.363281 14.03125 C 12.363281 14.03125 12.363281 14.03125 12.363281 14.082031 C 12.363281 14.082031 12.363281 14.082031 12.363281 14.132812 C 12.363281 14.183594 12.363281 14.183594 12.363281 14.234375 C 12.363281 14.285156 12.3125 14.386719 12.3125 14.4375 C 12.3125 14.4375 12.3125 14.488281 12.3125 14.488281 C 12.3125 14.488281 12.3125 14.488281 12.3125 14.539062 L 12.210938 14.742188 C 12.210938 14.742188 12.160156 14.792969 12.160156 14.792969 L 12.109375 14.84375 C 12.058594 14.894531 12.058594 14.894531 12.109375 14.84375 C 12.058594 14.894531 12.011719 14.894531 12.011719 14.945312 L 11.960938 14.996094 L 11.65625 15.046875 C 11.605469 15.046875 11.605469 15.046875 11.554688 15.046875 L 11.199219 15.046875 L 11.097656 14.996094 C 10.996094 14.945312 11.148438 14.996094 11.148438 14.996094 C 11.148438 14.996094 10.996094 14.894531 10.996094 14.894531 C 10.996094 14.894531 10.945312 14.84375 10.894531 14.84375 C 10.894531 14.84375 10.746094 14.691406 10.746094 14.691406 L 10.695312 14.640625 L 10.746094 14.589844 L 10.746094 14.539062 C 10.746094 14.488281 10.695312 14.488281 10.746094 14.539062 C 10.746094 14.488281 10.695312 14.4375 10.695312 14.386719 C 10.695312 14.386719 10.695312 14.335938 10.695312 14.285156 C 10.644531 14.234375 10.644531 14.132812 10.644531 14.082031 Z M 10.644531 14.082031 " fill-opacity="1" fill-rule="nonzero"/><path fill="#38b6ff" d="M 10.644531 14.082031 C 10.695312 13.929688 10.644531 14.03125 10.644531 14.082031 Z M 10.644531 14.082031 " fill-opacity="1" fill-rule="nonzero"/><path fill="#38b6ff" d="M 18.335938 15.65625 C 18.691406 15.25 18.84375 14.792969 18.84375 14.234375 C 18.84375 14.132812 18.84375 14.082031 18.84375 13.980469 C 18.691406 13.164062 18.183594 12.503906 17.425781 12.199219 C 16.617188 11.894531 15.652344 12.148438 15.097656 12.808594 C 14.339844 13.726562 14.4375 15.046875 15.300781 15.859375 C 16.160156 16.671875 17.527344 16.519531 18.335938 15.65625 Z M 17.578125 14.082031 C 17.578125 14.082031 17.578125 14.132812 17.578125 14.082031 C 17.578125 14.132812 17.578125 14.132812 17.578125 14.132812 C 17.578125 14.132812 17.578125 14.132812 17.578125 14.082031 Z M 15.804688 14.082031 C 15.804688 14.082031 15.804688 14.03125 15.804688 13.980469 C 15.804688 13.929688 15.855469 13.828125 15.855469 13.777344 L 15.90625 13.675781 L 15.957031 13.570312 C 16.007812 13.519531 16.058594 13.46875 16.109375 13.417969 L 16.160156 13.417969 C 16.109375 13.46875 16.160156 13.417969 16.210938 13.417969 C 16.261719 13.367188 16.363281 13.367188 16.414062 13.316406 C 16.414062 13.316406 16.261719 13.367188 16.363281 13.316406 L 16.464844 13.265625 L 16.566406 13.265625 C 16.566406 13.265625 16.566406 13.265625 16.617188 13.265625 C 16.617188 13.265625 16.667969 13.265625 16.667969 13.265625 L 16.867188 13.265625 L 17.121094 13.316406 C 17.222656 13.367188 17.222656 13.367188 17.222656 13.367188 L 17.273438 13.417969 C 17.273438 13.417969 17.273438 13.417969 17.324219 13.46875 L 17.476562 13.621094 C 17.476562 13.675781 17.527344 13.675781 17.527344 13.726562 C 17.527344 13.777344 17.578125 13.777344 17.578125 13.828125 C 17.578125 13.878906 17.628906 13.929688 17.628906 13.980469 C 17.628906 14.03125 17.578125 14.082031 17.578125 14.132812 C 17.578125 14.183594 17.578125 14.183594 17.578125 14.234375 C 17.578125 14.285156 17.527344 14.386719 17.527344 14.4375 C 17.527344 14.4375 17.527344 14.4375 17.527344 14.488281 C 17.476562 14.539062 17.425781 14.640625 17.425781 14.691406 C 17.425781 14.691406 17.375 14.742188 17.375 14.742188 C 17.375 14.742188 17.324219 14.792969 17.324219 14.792969 C 17.273438 14.84375 17.273438 14.84375 17.324219 14.792969 C 17.273438 14.84375 17.222656 14.84375 17.222656 14.894531 L 17.171875 14.945312 L 16.765625 15.046875 C 16.714844 15.046875 16.714844 15.046875 16.667969 15.046875 L 16.464844 15.046875 L 16.261719 14.945312 C 16.160156 14.945312 16.3125 14.945312 16.3125 14.945312 C 16.3125 14.945312 16.160156 14.84375 16.160156 14.84375 L 16.058594 14.792969 C 16.058594 14.792969 15.957031 14.691406 15.90625 14.640625 L 15.855469 14.539062 L 15.90625 14.488281 C 15.90625 14.4375 15.855469 14.335938 15.855469 14.285156 L 15.855469 14.183594 C 15.804688 14.183594 15.804688 14.132812 15.804688 14.082031 Z M 15.804688 14.082031 " fill-opacity="1" fill-rule="nonzero"/><path fill="#38b6ff" d="M 16.765625 15.046875 C 16.765625 14.996094 16.667969 15.046875 16.765625 15.046875 Z M 16.765625 15.046875 " fill-opacity="1" fill-rule="nonzero"/><path fill="#38b6ff" d="M 15.804688 14.082031 C 15.855469 13.929688 15.804688 14.03125 15.804688 14.082031 Z M 15.804688 14.082031 " fill-opacity="1" fill-rule="nonzero"/><path fill="#38b6ff" d="M 39.339844 29.585938 C 38.835938 28.976562 37.921875 29.890625 38.429688 30.5 L 43.339844 36.140625 L 38.429688 41.785156 C 37.871094 42.394531 38.785156 43.308594 39.339844 42.699219 L 44.65625 36.601562 C 44.90625 36.34375 44.90625 35.9375 44.65625 35.683594 Z M 39.339844 29.585938 " fill-opacity="1" fill-rule="nonzero"/><path fill="#38b6ff" d="M 24.460938 29.585938 L 19.195312 35.683594 C 18.945312 35.9375 18.945312 36.34375 19.195312 36.601562 L 24.460938 42.699219 C 25.015625 43.308594 25.878906 42.394531 25.371094 41.785156 L 20.460938 36.140625 L 25.371094 30.5 C 25.929688 29.890625 25.015625 28.976562 24.460938 29.585938 Z M 24.460938 29.585938 " fill-opacity="1" fill-rule="nonzero"/><path fill="#38b6ff" d="M 34.378906 29.6875 L 29.117188 40.363281 L 28.359375 41.886719 C 28.003906 42.597656 29.066406 43.257812 29.472656 42.546875 L 34.785156 31.871094 L 35.542969 30.347656 C 35.796875 29.636719 34.734375 28.976562 34.378906 29.6875 Z M 34.378906 29.6875 " fill-opacity="1" fill-rule="nonzero"/></svg>