<svg xmlns="http://www.w3.org/2000/svg" xmlns:xlink="http://www.w3.org/1999/xlink" width="85" zoomAndPan="magnify" viewBox="0 0 63.75 63.749998" height="85" preserveAspectRatio="xMidYMid meet" version="1.0"><defs><clipPath id="b6604edc4c"><path d="M 11.179688 17.085938 L 52.429688 17.085938 L 52.429688 46.335938 L 11.179688 46.335938 Z M 11.179688 17.085938 " clip-rule="nonzero"/></clipPath></defs><g clip-path="url(#b6604edc4c)"><path fill="#38b6ff" d="M 50.058594 17.085938 C 49.796875 17.085938 49.535156 17.085938 49.269531 17.085938 L 13.78125 17.085938 C 12.636719 17.085938 11.554688 17.738281 11.292969 18.90625 C 11.226562 19.394531 11.195312 19.882812 11.226562 20.371094 L 11.226562 43.085938 C 11.195312 43.640625 11.226562 44.191406 11.359375 44.710938 C 11.71875 45.785156 12.734375 46.335938 13.8125 46.335938 L 50.058594 46.335938 C 50.121094 46.335938 50.1875 46.304688 50.253906 46.273438 C 51.5625 46.140625 52.414062 45.070312 52.414062 43.738281 L 52.414062 19.621094 C 52.414062 18.257812 51.464844 17.121094 50.058594 17.085938 Z M 12.046875 19.425781 C 12.078125 18.417969 12.863281 17.867188 13.8125 17.867188 L 46.652344 17.867188 C 47.765625 17.867188 48.910156 17.835938 50.023438 17.867188 C 51.007812 17.898438 51.628906 18.648438 51.628906 19.589844 L 51.628906 22.417969 L 16.597656 22.417969 C 15.058594 22.417969 13.550781 22.351562 12.046875 22.417969 C 12.011719 21.441406 12.011719 20.433594 12.046875 19.425781 Z M 51.597656 43.933594 C 51.597656 44.777344 50.910156 45.460938 50.023438 45.492188 C 49.992188 45.492188 49.957031 45.492188 49.957031 45.492188 L 13.976562 45.492188 C 13.289062 45.492188 12.601562 45.394531 12.242188 44.710938 C 11.980469 44.226562 12.046875 43.671875 12.046875 43.121094 L 12.046875 23.585938 C 12.046875 23.488281 12.046875 23.359375 12.046875 23.261719 L 47.046875 23.261719 C 48.582031 23.261719 50.089844 23.328125 51.597656 23.261719 L 51.597656 43.605469 C 51.597656 43.703125 51.597656 43.835938 51.597656 43.933594 Z M 51.597656 43.933594 " fill-opacity="1" fill-rule="nonzero"/></g><path fill="#38b6ff" d="M 14.796875 20.53125 C 14.796875 20.5 14.761719 20.5 14.796875 20.53125 Z M 14.796875 20.53125 " fill-opacity="1" fill-rule="nonzero"/><path fill="#38b6ff" d="M 16.402344 21.28125 C 16.628906 21.019531 16.726562 20.726562 16.726562 20.371094 C 16.726562 20.304688 16.726562 20.273438 16.726562 20.207031 C 16.664062 19.6875 16.300781 19.265625 15.8125 19.070312 C 15.289062 18.875 14.664062 19.039062 14.304688 19.460938 C 13.8125 20.042969 13.878906 20.890625 14.4375 21.410156 C 15.027344 21.898438 15.875 21.832031 16.402344 21.28125 Z M 15.910156 20.273438 C 15.910156 20.273438 15.910156 20.304688 15.910156 20.273438 C 15.910156 20.304688 15.910156 20.304688 15.910156 20.304688 C 15.910156 20.304688 15.910156 20.304688 15.910156 20.273438 Z M 14.761719 20.273438 C 14.761719 20.238281 14.761719 20.238281 14.761719 20.207031 C 14.761719 20.175781 14.796875 20.140625 14.796875 20.078125 L 14.828125 20.011719 L 14.863281 19.945312 C 14.894531 19.914062 14.925781 19.882812 14.960938 19.851562 L 14.992188 19.851562 C 14.960938 19.882812 14.992188 19.851562 15.027344 19.851562 C 15.058594 19.816406 15.125 19.816406 15.15625 19.785156 C 15.15625 19.785156 15.058594 19.816406 15.125 19.785156 L 15.1875 19.753906 L 15.253906 19.753906 C 15.253906 19.753906 15.253906 19.753906 15.289062 19.753906 C 15.289062 19.753906 15.320312 19.753906 15.320312 19.753906 L 15.417969 19.753906 L 15.582031 19.785156 C 15.648438 19.816406 15.648438 19.816406 15.648438 19.816406 L 15.679688 19.851562 L 15.714844 19.882812 C 15.679688 19.851562 15.648438 19.851562 15.679688 19.882812 L 15.777344 19.980469 C 15.777344 20.011719 15.8125 20.011719 15.8125 20.042969 L 15.84375 20.109375 C 15.84375 20.140625 15.84375 20.175781 15.875 20.175781 C 15.875 20.207031 15.84375 20.238281 15.84375 20.273438 C 15.84375 20.304688 15.84375 20.304688 15.84375 20.335938 C 15.84375 20.371094 15.8125 20.433594 15.8125 20.46875 C 15.8125 20.46875 15.8125 20.5 15.8125 20.5 C 15.8125 20.5 15.8125 20.5 15.8125 20.53125 C 15.777344 20.566406 15.746094 20.628906 15.746094 20.664062 C 15.746094 20.664062 15.714844 20.695312 15.714844 20.695312 C 15.714844 20.695312 15.679688 20.726562 15.679688 20.726562 L 15.648438 20.726562 C 15.613281 20.757812 15.613281 20.757812 15.648438 20.726562 C 15.613281 20.757812 15.582031 20.757812 15.582031 20.792969 L 15.550781 20.824219 L 15.386719 20.890625 C 15.351562 20.890625 15.351562 20.890625 15.320312 20.890625 L 15.1875 20.890625 C 15.15625 20.890625 15.125 20.890625 15.125 20.855469 L 15.058594 20.824219 C 14.992188 20.792969 15.089844 20.824219 15.089844 20.824219 C 15.089844 20.824219 14.992188 20.757812 14.992188 20.757812 L 14.925781 20.726562 C 14.925781 20.726562 14.828125 20.628906 14.828125 20.628906 L 14.796875 20.597656 L 14.796875 20.53125 C 14.796875 20.53125 14.796875 20.566406 14.796875 20.566406 C 14.796875 20.566406 14.761719 20.46875 14.761719 20.433594 Z M 14.761719 20.273438 " fill-opacity="1" fill-rule="nonzero"/><path fill="#38b6ff" d="M 19.675781 21.214844 C 19.871094 20.988281 19.96875 20.695312 20 20.402344 C 20 20.371094 20 20.371094 20 20.335938 C 20 20.335938 20 20.304688 20 20.304688 C 20 19.71875 19.640625 19.199219 19.085938 19.003906 C 18.5625 18.808594 17.9375 18.972656 17.578125 19.394531 C 17.089844 19.980469 17.152344 20.824219 17.710938 21.34375 C 18.300781 21.863281 19.152344 21.800781 19.675781 21.214844 Z M 18.070312 20.273438 C 18.070312 20.238281 18.070312 20.238281 18.070312 20.207031 C 18.070312 20.175781 18.101562 20.140625 18.101562 20.078125 L 18.136719 20.011719 L 18.167969 19.945312 C 18.203125 19.914062 18.234375 19.882812 18.265625 19.851562 L 18.300781 19.851562 C 18.300781 19.851562 18.300781 19.851562 18.332031 19.851562 C 18.363281 19.816406 18.429688 19.816406 18.464844 19.785156 C 18.464844 19.785156 18.363281 19.816406 18.429688 19.785156 L 18.496094 19.753906 L 18.5625 19.753906 C 18.5625 19.753906 18.5625 19.753906 18.59375 19.753906 C 18.59375 19.753906 18.625 19.753906 18.625 19.753906 L 18.691406 19.753906 L 18.855469 19.785156 C 18.921875 19.816406 18.921875 19.816406 18.921875 19.816406 C 18.921875 19.816406 18.953125 19.816406 18.953125 19.851562 C 18.953125 19.851562 18.953125 19.851562 18.988281 19.882812 L 19.085938 19.980469 C 19.085938 20.011719 19.117188 20.011719 19.117188 20.042969 L 19.152344 20.109375 C 19.183594 20.175781 19.183594 20.207031 19.183594 20.238281 C 19.183594 20.238281 19.183594 20.238281 19.183594 20.273438 C 19.183594 20.273438 19.183594 20.273438 19.183594 20.304688 C 19.183594 20.335938 19.183594 20.335938 19.183594 20.371094 C 19.183594 20.402344 19.152344 20.46875 19.152344 20.5 C 19.152344 20.5 19.152344 20.53125 19.152344 20.53125 C 19.152344 20.53125 19.152344 20.53125 19.152344 20.566406 L 19.085938 20.695312 C 19.085938 20.695312 19.050781 20.726562 19.050781 20.726562 L 19.019531 20.757812 C 18.988281 20.792969 18.988281 20.792969 19.019531 20.757812 C 18.988281 20.792969 18.953125 20.792969 18.953125 20.824219 L 18.921875 20.855469 L 18.726562 20.890625 C 18.691406 20.890625 18.691406 20.890625 18.660156 20.890625 L 18.429688 20.890625 L 18.363281 20.855469 C 18.300781 20.824219 18.398438 20.855469 18.398438 20.855469 C 18.398438 20.855469 18.300781 20.792969 18.300781 20.792969 C 18.300781 20.792969 18.265625 20.757812 18.234375 20.757812 C 18.234375 20.757812 18.136719 20.664062 18.136719 20.664062 L 18.101562 20.628906 L 18.136719 20.597656 L 18.136719 20.566406 C 18.136719 20.53125 18.101562 20.53125 18.136719 20.566406 C 18.136719 20.53125 18.101562 20.5 18.101562 20.46875 C 18.101562 20.46875 18.101562 20.433594 18.101562 20.402344 C 18.070312 20.371094 18.070312 20.304688 18.070312 20.273438 Z M 18.070312 20.273438 " fill-opacity="1" fill-rule="nonzero"/><path fill="#38b6ff" d="M 18.070312 20.273438 C 18.101562 20.175781 18.070312 20.238281 18.070312 20.273438 Z M 18.070312 20.273438 " fill-opacity="1" fill-rule="nonzero"/><path fill="#38b6ff" d="M 23.046875 21.28125 C 23.277344 21.019531 23.375 20.726562 23.375 20.371094 C 23.375 20.304688 23.375 20.273438 23.375 20.207031 C 23.277344 19.6875 22.949219 19.265625 22.457031 19.070312 C 21.933594 18.875 21.3125 19.039062 20.953125 19.460938 C 20.460938 20.042969 20.527344 20.890625 21.082031 21.410156 C 21.640625 21.929688 22.523438 21.832031 23.046875 21.28125 Z M 22.554688 20.273438 C 22.554688 20.273438 22.554688 20.304688 22.554688 20.273438 C 22.554688 20.304688 22.554688 20.304688 22.554688 20.304688 C 22.554688 20.304688 22.554688 20.304688 22.554688 20.273438 Z M 21.410156 20.273438 C 21.410156 20.273438 21.410156 20.238281 21.410156 20.207031 C 21.410156 20.175781 21.441406 20.109375 21.441406 20.078125 L 21.476562 20.011719 L 21.507812 19.945312 C 21.539062 19.914062 21.574219 19.882812 21.605469 19.851562 L 21.640625 19.851562 C 21.605469 19.882812 21.640625 19.851562 21.671875 19.851562 C 21.703125 19.816406 21.769531 19.816406 21.800781 19.785156 C 21.800781 19.785156 21.703125 19.816406 21.769531 19.785156 L 21.835938 19.753906 L 21.902344 19.753906 C 21.902344 19.753906 21.902344 19.753906 21.933594 19.753906 C 21.933594 19.753906 21.964844 19.753906 21.964844 19.753906 L 22.097656 19.753906 L 22.261719 19.785156 C 22.328125 19.816406 22.328125 19.816406 22.328125 19.816406 L 22.359375 19.851562 C 22.359375 19.851562 22.359375 19.851562 22.390625 19.882812 L 22.488281 19.980469 C 22.488281 20.011719 22.523438 20.011719 22.523438 20.042969 C 22.523438 20.078125 22.554688 20.078125 22.554688 20.109375 C 22.554688 20.140625 22.589844 20.175781 22.589844 20.207031 C 22.589844 20.238281 22.554688 20.273438 22.554688 20.304688 C 22.554688 20.335938 22.554688 20.335938 22.554688 20.371094 C 22.554688 20.402344 22.523438 20.46875 22.523438 20.5 C 22.523438 20.5 22.523438 20.5 22.523438 20.53125 C 22.488281 20.566406 22.457031 20.628906 22.457031 20.664062 C 22.457031 20.664062 22.425781 20.695312 22.425781 20.695312 C 22.425781 20.695312 22.390625 20.726562 22.390625 20.726562 C 22.359375 20.757812 22.359375 20.757812 22.390625 20.726562 C 22.359375 20.757812 22.328125 20.757812 22.328125 20.792969 L 22.292969 20.824219 L 22.03125 20.890625 C 22 20.890625 22 20.890625 21.964844 20.890625 L 21.835938 20.890625 L 21.769531 20.855469 L 21.703125 20.824219 C 21.640625 20.824219 21.738281 20.824219 21.738281 20.824219 C 21.738281 20.824219 21.640625 20.757812 21.640625 20.757812 L 21.574219 20.726562 C 21.574219 20.726562 21.507812 20.664062 21.476562 20.628906 L 21.441406 20.566406 L 21.476562 20.53125 C 21.476562 20.5 21.441406 20.433594 21.441406 20.402344 L 21.441406 20.335938 C 21.410156 20.335938 21.410156 20.304688 21.410156 20.273438 Z M 21.410156 20.273438 " fill-opacity="1" fill-rule="nonzero"/><path fill="#38b6ff" d="M 22.03125 20.890625 C 22.03125 20.855469 21.964844 20.890625 22.03125 20.890625 Z M 22.03125 20.890625 " fill-opacity="1" fill-rule="nonzero"/><path fill="#38b6ff" d="M 21.410156 20.273438 C 21.441406 20.175781 21.410156 20.238281 21.410156 20.273438 Z M 21.410156 20.273438 " fill-opacity="1" fill-rule="nonzero"/><path fill="#38b6ff" d="M 36.632812 30.183594 C 36.304688 29.792969 35.71875 30.378906 36.042969 30.769531 L 39.21875 34.378906 L 36.042969 37.984375 C 35.683594 38.375 36.273438 38.960938 36.632812 38.570312 L 40.070312 34.667969 C 40.234375 34.507812 40.234375 34.246094 40.070312 34.085938 Z M 36.632812 30.183594 " fill-opacity="1" fill-rule="nonzero"/><path fill="#38b6ff" d="M 27.007812 30.183594 L 23.601562 34.085938 C 23.441406 34.246094 23.441406 34.507812 23.601562 34.667969 L 27.007812 38.570312 C 27.367188 38.960938 27.925781 38.375 27.597656 37.984375 L 24.421875 34.378906 L 27.597656 30.769531 C 27.957031 30.378906 27.367188 29.792969 27.007812 30.183594 Z M 27.007812 30.183594 " fill-opacity="1" fill-rule="nonzero"/><path fill="#38b6ff" d="M 33.425781 30.25 L 30.019531 37.074219 L 29.527344 38.050781 C 29.300781 38.503906 29.988281 38.925781 30.25 38.472656 L 33.6875 31.648438 L 34.179688 30.671875 C 34.34375 30.21875 33.65625 29.792969 33.425781 30.25 Z M 33.425781 30.25 " fill-opacity="1" fill-rule="nonzero"/></svg>